<svg width="66" height="66" viewBox="0 0 66 66" fill="none" xmlns="http://www.w3.org/2000/svg">
<rect width="66" height="66" fill="white"/>
<path fill-rule="evenodd" clip-rule="evenodd" d="M28.5362 15.2136C26.227 16.4285 24.3378 17.4565 24.3382 17.4983C24.3392 17.6062 29.8803 20.4403 30.077 20.4334C30.1664 20.4304 30.8154 20.1287 31.5191 19.763L32.7987 19.0983L35.5937 20.5494L37.8822 19.5108C41.3307 17.9459 41.6888 17.7744 41.6327 17.7167C41.5582 17.6403 40.3213 16.9692 36.9656 15.185C35.3438 14.3227 33.7697 13.4772 33.4675 13.3061C33.1654 13.135 32.8769 12.9974 32.8265 13C32.7762 13.0027 30.8454 13.9988 28.5362 15.2136ZM18.4082 20.5104L16.0043 21.7644V27.2679C16.0043 30.2949 16.0359 32.7714 16.0746 32.7714C16.1132 32.7714 17.2959 32.2537 18.7028 31.6208L21.2607 30.4702V24.6691L22.5107 25.3569C23.4739 25.8864 24.4377 26.4148 25.4021 26.9422L27.0434 27.8397L27.7738 27.5062C28.2318 27.2966 28.689 27.0851 29.1452 26.8715C29.4977 26.7057 30.3631 26.312 31.0682 25.9965C31.7733 25.6809 32.426 25.3635 32.5186 25.2912C32.6415 25.1951 31.1423 24.3584 26.9735 22.1964C23.8312 20.5667 21.1593 19.2385 21.0361 19.2448C20.9129 19.2512 19.7303 19.8206 18.4082 20.5104ZM42.0659 20.8625C40.4287 21.609 39.0881 22.2495 39.0866 22.286C39.0851 22.3225 39.9775 22.8583 41.0696 23.4766C42.1617 24.095 43.0552 24.634 43.0552 24.6745C43.0552 24.7151 42.0888 25.1879 40.9078 25.7256C39.7267 26.2632 36.7412 27.6248 34.2733 28.7515L26.0042 32.5264C23.9241 33.4761 22.0491 34.3321 21.8376 34.4288C17.5889 36.3713 16.4211 36.9103 16.2607 37.0028C16.0995 37.0959 16.063 37.6371 16.0342 40.3532L16 43.5927L20.2992 45.805L23.2799 44.4464C24.9193 43.6992 26.2606 43.0488 26.2606 43.0009C26.2606 42.9531 25.9577 42.7537 25.5876 42.5577C25.2173 42.3616 24.4529 41.9276 23.8888 41.593C23.3248 41.2584 22.7623 40.9514 22.6389 40.9107C22.5154 40.8701 22.4162 40.799 22.4182 40.7527C22.4203 40.7065 23.7328 40.0769 25.3349 39.3534C28.4465 37.9483 30.8277 36.8654 35.94 34.5306C38.226 33.4868 40.5122 32.4436 42.7988 31.401C44.8084 30.485 47.1449 29.4151 47.9911 29.0235L49.5295 28.3116L49.5981 21.759L47.4179 20.6288C46.2187 20.0072 45.1937 19.5002 45.1399 19.5021C45.0862 19.5038 43.7029 20.1159 42.0659 20.8625ZM48.9454 32.6824C48.6241 32.8409 47.9895 33.1376 47.5352 33.3418C47.0808 33.5459 46.2187 33.9388 45.6193 34.215L44.5296 34.7169L44.5047 37.5933C44.491 39.1752 44.4333 40.4626 44.3765 40.4542C44.2475 40.4348 42.2051 39.377 40.1521 38.2659C38.6703 37.4642 38.5772 37.4323 38.229 37.6064C38.0277 37.7072 36.8246 38.2521 35.5554 38.8177C34.2861 39.3831 33.2063 39.8827 33.1555 39.9279C33.1049 39.9731 35.6593 41.3714 38.8322 43.0354L44.601 46.0608L47.0653 44.7733C48.4205 44.0653 49.573 43.4195 49.626 43.3382C49.7455 43.1556 49.7353 32.3692 49.6157 32.3837C49.5684 32.3895 49.2667 32.5239 48.9454 32.6824ZM35.299 45.343C34.8715 45.5286 34.4442 45.7144 34.0169 45.9006C32.7268 46.4642 32.9796 46.4829 31.4448 45.7113C30.4225 45.1973 29.9818 45.0388 29.7906 45.1157C29.6471 45.1734 28.4124 45.7345 27.0465 46.3624C25.6807 46.9904 24.5159 47.5041 24.4579 47.5041C23.8849 47.5041 24.8376 48.079 28.5137 49.9517L32.8249 52.1479L34.6388 51.2434C35.6365 50.746 37.6488 49.7499 39.1107 49.0299C40.5724 48.3097 41.7504 47.7018 41.7284 47.6788C41.7061 47.656 40.4813 47.0208 39.0063 46.2672L36.3246 44.8974L35.299 45.343Z" fill="#382565"/>
</svg>
