<svg width="66" height="66" viewBox="0 0 66 66" fill="none" xmlns="http://www.w3.org/2000/svg">
<rect width="66" height="66" fill="white"/>
<path d="M24.4376 19.8216C27.6506 16.7643 31.4932 16 33.1188 16C34.7445 16 38.799 16.7643 42.0121 19.8216C42.6814 19.5487 44.1923 18.7843 44.8808 17.9108C44.1158 19.9126 41.094 24.5168 35.127 26.919C34.9847 26.632 34.3839 26.0582 33.1188 26.0582C31.8538 26.0582 31.4649 26.632 31.3227 26.919C25.3556 24.5168 22.3338 19.9126 21.5688 17.9108C22.2573 18.7843 23.7682 19.5487 24.4376 19.8216Z" fill="#382565"/>
<path d="M26.3025 26.1432C27.2075 26.7924 29.2442 28.1671 30.1518 28.472C28.4237 28.9871 25.2345 29.2426 26.3025 26.1432Z" fill="#382565"/>
<path d="M22.6985 22.4807C23.1212 23.0806 24.109 24.3818 24.6786 24.7883C23.7663 26.8136 23.2633 30.8642 28.5496 30.8642L28.4161 32.6214L24.5004 34.7384C26.3423 35.27 30.3512 37.6962 31.6507 43.1484L33.2101 48.2774L34.7976 43.1484C36.0972 37.6962 40.106 35.27 41.948 34.7384L38.0322 32.6214L37.8987 30.8642C43.185 30.8642 42.682 26.8136 41.7698 24.7883C42.3393 24.3818 43.3272 23.0806 43.7499 22.4807C45.3931 24.0443 45.5716 27.1264 45.4555 28.472C45.4555 38.6297 47.4507 43.375 48.4483 44.4779L44.2219 41.4052L41.3603 45.9018L38.0322 43.1484L33.2101 50.7981L28.4161 43.1484L25.0881 45.9018L22.2264 41.4052L18 44.4779C18.9976 43.375 20.9928 38.6297 20.9928 28.472C20.8767 27.1264 21.0553 24.0443 22.6985 22.4807Z" fill="#382565"/>
<path d="M40.1458 26.1432C39.2409 26.7924 37.2041 28.1671 36.2965 28.472C38.0246 28.9871 41.2139 29.2426 40.1458 26.1432Z" fill="#382565"/>
<path d="M30.6493 31.3911C30.6493 29.3831 32.4432 28.3946 33.3429 28.1514C34.2426 28.3946 36.0419 29.3831 36.0419 31.3911V33.58L38.0663 34.7767C36.4918 35.7106 33.3483 38.495 33.3483 42.1608C33.3483 38.495 30.1993 35.7106 28.6249 34.7767L30.6493 33.58V31.3911Z" fill="#382565"/>
</svg>
