<svg width="66" height="66" viewBox="0 0 66 66" fill="none" xmlns="http://www.w3.org/2000/svg">
<rect width="66" height="66" fill="white"/>
<path fill-rule="evenodd" clip-rule="evenodd" d="M45.2692 19.1934C45.657 19.0222 46.0813 18.9631 46.4982 19.0224C46.9151 19.0816 47.3092 19.2571 47.6395 19.5305C47.9699 19.8039 48.2244 20.1652 48.3765 20.5768C48.5286 20.9884 48.5729 21.4353 48.5046 21.8709L44.946 44.5243C44.6008 46.7095 42.3163 47.9626 40.4068 46.8741C38.8095 45.9635 36.4371 44.5605 34.3032 43.0966C33.2362 42.3639 29.9679 40.0174 30.3696 38.3476C30.7148 36.9199 36.2064 31.5551 39.3445 28.3654C40.5762 27.1123 40.0145 26.3894 38.56 27.5421C34.9481 30.404 29.1489 34.7562 27.2315 35.9813C25.5401 37.0616 24.6583 37.246 23.6039 37.0616C21.6803 36.7256 19.8963 36.2053 18.4402 35.5713C16.4726 34.715 16.5683 31.8762 18.4386 31.0495L45.2692 19.1934Z" fill="#382565"/>
</svg>
